<svg xmlns="http://www.w3.org/2000/svg" width="16" height="16" fill="none"><path d="M2.573 3.519c-.4.06-.598.34-.566.8.024.351.173.561.457.648.16.048 10.912.048 11.072 0 .28-.085.431-.296.457-.635.028-.377-.092-.628-.362-.754l-.151-.071-5.387-.004c-2.962-.002-5.447.005-5.52.016m0 4c-.4.06-.598.34-.566.8.024.351.173.561.457.648.16.048 10.912.048 11.072 0 .28-.085.431-.296.457-.635.028-.377-.092-.628-.362-.754l-.151-.071-5.387-.004c-2.962-.002-5.447.005-5.52.016m0 4c-.4.06-.598.34-.566.8.024.351.173.561.457.648.16.048 10.912.048 11.072 0 .28-.085.431-.296.457-.635.028-.377-.092-.628-.362-.754l-.151-.071-5.387-.004c-2.962-.002-5.447.005-5.52.016" fill-rule="evenodd" fill="#000"/></svg>